<svg xmlns="http://www.w3.org/2000/svg" viewBox="0 0 64 64" role="img" aria-label="Клевер">
  <defs>
    <linearGradient id="leaf" x1="10" y1="8" x2="54" y2="58" gradientUnits="userSpaceOnUse">
      <stop offset="0" stop-color="#7dd3fc"/>
      <stop offset="0.48" stop-color="#2563eb"/>
      <stop offset="1" stop-color="#1e3a8a"/>
    </linearGradient>
    <filter id="softShadow" x="-20%" y="-20%" width="140%" height="140%">
      <feDropShadow dx="0" dy="3" stdDeviation="2.4" flood-color="#0f172a" flood-opacity="0.24"/>
    </filter>
  </defs>
  <rect width="64" height="64" rx="18" fill="#eff6ff"/>
  <g filter="url(#softShadow)">
    <path d="M31.8 28.2C22.8 16.4 11.5 22.4 13.1 32.5c1.3 8.5 12.5 8.8 18.7-4.3Z" fill="url(#leaf)"/>
    <path d="M35.8 31.8c11.8-9 5.8-20.3-4.3-18.7-8.5 1.3-8.8 12.5 4.3 18.7Z" fill="url(#leaf)"/>
    <path d="M32.2 35.8c9 11.8 20.3 5.8 18.7-4.3-1.3-8.5-12.5-8.8-18.7 4.3Z" fill="url(#leaf)"/>
    <path d="M28.2 32.2c-11.8 9-5.8 20.3 4.3 18.7 8.5-1.3 8.8-12.5-4.3-18.7Z" fill="url(#leaf)"/>
    <circle cx="32" cy="32" r="4.8" fill="#dbeafe"/>
    <path d="M36 38c5.7 3.1 9.5 7 11.9 12.1" fill="none" stroke="#1d4ed8" stroke-width="4" stroke-linecap="round"/>
  </g>
</svg>
